<svg id="svg" version="1.1" xmlns="http://www.w3.org/2000/svg" xmlns:xlink="http://www.w3.org/1999/xlink" width="400" height="423.5294117647059" viewBox="0, 0, 400,423.5294117647059"><g id="svgg"><path id="path0" d="M38.800 235.200 L 38.800 322.800 53.000 322.800 L 67.200 322.800 67.200 235.200 L 67.200 147.600 53.000 147.600 L 38.800 147.600 38.800 235.200 M274.000 292.400 L 274.000 299.200 281.000 299.200 L 288.000 299.200 288.000 292.400 L 288.000 285.600 281.000 285.600 L 274.000 285.600 274.000 292.400 " stroke="none" fill="#fcfcfc" fill-rule="evenodd"></path><path id="path1" d="M0.000 211.600 L 0.000 423.200 200.000 423.200 L 400.000 423.200 400.000 211.600 L 400.000 0.000 200.000 0.000 L 0.000 0.000 0.000 211.600 M67.552 146.942 C 67.883 147.341,67.975 170.758,67.901 235.442 L 67.800 323.400 53.000 323.400 L 38.200 323.400 38.099 235.442 C 38.025 170.758,38.117 147.341,38.448 146.942 C 38.811 146.505,41.623 146.400,53.000 146.400 C 64.377 146.400,67.189 146.505,67.552 146.942 M288.320 285.280 C 289.114 286.074,288.982 298.961,288.171 299.771 C 287.421 300.522,275.317 300.705,273.974 299.986 C 273.189 299.566,272.721 285.812,273.467 285.067 C 273.970 284.563,287.802 284.762,288.320 285.280 " stroke="none" fill="#0c0424" fill-rule="evenodd"></path><path id="path2" d="" stroke="none" fill="#100c090" fill-rule="evenodd"></path><path id="path3" d="M38.448 146.942 C 38.117 147.341,38.025 170.758,38.099 235.442 L 38.200 323.400 53.000 323.400 L 67.800 323.400 67.901 235.442 C 67.975 170.758,67.883 147.341,67.552 146.942 C 67.189 146.505,64.377 146.400,53.000 146.400 C 41.623 146.400,38.811 146.505,38.448 146.942 M67.400 235.200 L 67.400 323.000 53.000 323.000 L 38.600 323.000 38.497 235.600 C 38.441 187.530,38.481 147.973,38.587 147.695 C 38.738 147.298,41.855 147.212,53.089 147.295 L 67.400 147.400 67.400 235.200 M273.467 285.067 C 272.721 285.812,273.189 299.566,273.974 299.986 C 275.317 300.705,287.421 300.522,288.171 299.771 C 288.982 298.961,289.114 286.074,288.320 285.280 C 287.802 284.762,273.970 284.563,273.467 285.067 M287.800 292.400 L 287.800 299.400 280.900 299.509 L 274.000 299.619 274.000 292.676 C 274.000 288.858,274.124 285.609,274.276 285.457 C 274.428 285.306,277.533 285.231,281.176 285.291 L 287.800 285.400 287.800 292.400 " stroke="none" fill="#884090" fill-rule="evenodd"></path><path id="path4" d="" stroke="none" fill="#0c4094" fill-rule="evenodd"></path></g></svg>